<?xml version="1.0" encoding="UTF-8" standalone="no"?>
<!DOCTYPE svg PUBLIC "-//W3C//DTD SVG 1.1//EN"
 "http://www.w3.org/Graphics/SVG/1.1/DTD/svg11.dtd">
<!-- Generated by graphviz version 2.43.0 (0)
 -->
<!-- Title: renm_ps6.RenmWindow.clear_message Pages: 1 -->
<svg width="573pt" height="268pt"
 viewBox="0.00 0.00 573.00 268.00" xmlns="http://www.w3.org/2000/svg" xmlns:xlink="http://www.w3.org/1999/xlink">
<g id="graph0" class="graph" transform="scale(1 1) rotate(0) translate(4 264)">
<title>renm_ps6.RenmWindow.clear_message</title>
<!-- Node1 -->
<g id="Node000001" class="node">
<title>Node1</title>
<g id="a_Node000001"><a xlink:title=" ">
<polygon fill="#999999" stroke="#666666" points="565,-150 404,-150 404,-120 565,-120 565,-150"/>
<text text-anchor="start" x="412" y="-138" font-family="Helvetica,sans-Serif" font-size="10.00">renm_ps6.RenmWindow.clear</text>
<text text-anchor="middle" x="484.5" y="-127" font-family="Helvetica,sans-Serif" font-size="10.00">_message</text>
</a>
</g>
</g>
<!-- Node2 -->
<g id="Node000002" class="node">
<title>Node2</title>
<g id="a_Node000002"><a xlink:href="classrenm__ps6_1_1RenmWindow.html#aef3c7c31a7a3d6cff1a91e08d69ea751" target="_top" xlink:title=" ">
<polygon fill="white" stroke="#666666" points="363.5,-260 205.5,-260 205.5,-230 363.5,-230 363.5,-260"/>
<text text-anchor="start" x="213.5" y="-248" font-family="Helvetica,sans-Serif" font-size="10.00">renm_ps6.RenmWindow.help</text>
<text text-anchor="middle" x="284.5" y="-237" font-family="Helvetica,sans-Serif" font-size="10.00">_click</text>
</a>
</g>
</g>
<!-- Node1&#45;&gt;Node2 -->
<g id="edge1_Node000001_Node000002" class="edge">
<title>Node1&#45;&gt;Node2</title>
<g id="a_edge1_Node000001_Node000002"><a xlink:title=" ">
<path fill="none" stroke="#63b8ff" d="M457.23,-156.57C434.65,-174.33 400.64,-199.22 368,-216 357.74,-221.27 346.3,-225.97 335.28,-229.97"/>
<polygon fill="#63b8ff" stroke="#63b8ff" points="459.66,-159.12 465.3,-150.15 455.3,-153.64 459.66,-159.12"/>
</a>
</g>
</g>
<!-- Node3 -->
<g id="Node000003" class="node">
<title>Node3</title>
<g id="a_Node000003"><a xlink:href="classrenm__ps6_1_1RenmWindow.html#aa255eadec90489b8d53b4886e6f4e770" target="_top" xlink:title=" ">
<polygon fill="white" stroke="#666666" points="165,-171 0,-171 0,-141 165,-141 165,-171"/>
<text text-anchor="start" x="8" y="-159" font-family="Helvetica,sans-Serif" font-size="10.00">renm_ps6.RenmWindow.move</text>
<text text-anchor="middle" x="82.5" y="-148" font-family="Helvetica,sans-Serif" font-size="10.00">_click</text>
</a>
</g>
</g>
<!-- Node1&#45;&gt;Node3 -->
<g id="edge2_Node000001_Node000003" class="edge">
<title>Node1&#45;&gt;Node3</title>
<g id="a_edge2_Node000001_Node000003"><a xlink:title=" ">
<path fill="none" stroke="#63b8ff" d="M446.97,-154.55C424.81,-165.28 395.58,-177.5 368,-183 295.21,-197.52 274.75,-191.36 201,-183 179.89,-180.61 157.05,-175.87 137.17,-171.02"/>
<polygon fill="#63b8ff" stroke="#63b8ff" points="448.6,-157.64 456,-150.06 445.49,-151.37 448.6,-157.64"/>
</a>
</g>
</g>
<!-- Node4 -->
<g id="Node000004" class="node">
<title>Node4</title>
<g id="a_Node000004"><a xlink:href="classrenm__ps6_1_1RenmWindow.html#a8549dab0e0db1b2f94ec8968078fbcf5" target="_top" xlink:title=" ">
<polygon fill="white" stroke="#666666" points="368,-174 201,-174 201,-144 368,-144 368,-174"/>
<text text-anchor="start" x="209" y="-162" font-family="Helvetica,sans-Serif" font-size="10.00">renm_ps6.RenmWindow.select</text>
<text text-anchor="middle" x="284.5" y="-151" font-family="Helvetica,sans-Serif" font-size="10.00">_click</text>
</a>
</g>
</g>
<!-- Node1&#45;&gt;Node4 -->
<g id="edge3_Node000001_Node000004" class="edge">
<title>Node1&#45;&gt;Node4</title>
<g id="a_edge3_Node000001_Node000004"><a xlink:title=" ">
<path fill="none" stroke="#63b8ff" d="M393.87,-145.86C385.33,-146.9 376.71,-147.94 368.25,-148.97"/>
<polygon fill="#63b8ff" stroke="#63b8ff" points="394.32,-149.34 403.82,-144.66 393.47,-142.39 394.32,-149.34"/>
</a>
</g>
</g>
<!-- Node5 -->
<g id="Node000005" class="node">
<title>Node5</title>
<g id="a_Node000005"><a xlink:href="classrenm__ps6_1_1RenmWindow.html#afb8ebe486575978446d2cfca80481270" target="_top" xlink:title=" ">
<polygon fill="white" stroke="#666666" points="366,-126 203,-126 203,-96 366,-96 366,-126"/>
<text text-anchor="start" x="211" y="-114" font-family="Helvetica,sans-Serif" font-size="10.00">renm_ps6.RenmWindow.show</text>
<text text-anchor="middle" x="284.5" y="-103" font-family="Helvetica,sans-Serif" font-size="10.00">_error_lines</text>
</a>
</g>
</g>
<!-- Node1&#45;&gt;Node5 -->
<g id="edge4_Node000001_Node000005" class="edge">
<title>Node1&#45;&gt;Node5</title>
<g id="a_edge4_Node000001_Node000005"><a xlink:title=" ">
<path fill="none" stroke="#63b8ff" d="M393.61,-124.1C384.51,-123 375.3,-121.89 366.31,-120.79"/>
<polygon fill="#63b8ff" stroke="#63b8ff" points="393.47,-127.61 403.82,-125.34 394.32,-120.66 393.47,-127.61"/>
</a>
</g>
</g>
<!-- Node6 -->
<g id="Node000006" class="node">
<title>Node6</title>
<g id="a_Node000006"><a xlink:href="classrenm__ps6_1_1RenmWindow.html#a9fd7d55ea8e9ca01a1ca11d6cb57888c" target="_top" xlink:title=" ">
<polygon fill="white" stroke="#666666" points="366,-78 203,-78 203,-48 366,-48 366,-78"/>
<text text-anchor="start" x="211" y="-66" font-family="Helvetica,sans-Serif" font-size="10.00">renm_ps6.RenmWindow.show</text>
<text text-anchor="middle" x="284.5" y="-55" font-family="Helvetica,sans-Serif" font-size="10.00">_help_message</text>
</a>
</g>
</g>
<!-- Node1&#45;&gt;Node6 -->
<g id="edge6_Node000001_Node000006" class="edge">
<title>Node1&#45;&gt;Node6</title>
<g id="a_edge6_Node000001_Node000006"><a xlink:title=" ">
<path fill="none" stroke="#63b8ff" d="M440.8,-115.92C419.2,-106.62 392.44,-95.61 368,-87 359.14,-83.88 349.64,-80.84 340.36,-78.03"/>
<polygon fill="#63b8ff" stroke="#63b8ff" points="439.45,-119.16 450.02,-119.93 442.24,-112.74 439.45,-119.16"/>
</a>
</g>
</g>
<!-- Node8 -->
<g id="Node000008" class="node">
<title>Node8</title>
<g id="a_Node000008"><a xlink:href="classrenm__ps6_1_1RenmWindow.html#a2a8c512cec2d73e55ba1f8ec646b14f0" target="_top" xlink:title=" ">
<polygon fill="white" stroke="#666666" points="365,-30 204,-30 204,0 365,0 365,-30"/>
<text text-anchor="start" x="212" y="-18" font-family="Helvetica,sans-Serif" font-size="10.00">renm_ps6.RenmWindow.undo</text>
<text text-anchor="middle" x="284.5" y="-7" font-family="Helvetica,sans-Serif" font-size="10.00">_click</text>
</a>
</g>
</g>
<!-- Node1&#45;&gt;Node8 -->
<g id="edge8_Node000001_Node000008" class="edge">
<title>Node1&#45;&gt;Node8</title>
<g id="a_edge8_Node000001_Node000008"><a xlink:title=" ">
<path fill="none" stroke="#63b8ff" d="M462.18,-112.57C440.4,-90.86 404.67,-58.48 368,-39 361.68,-35.64 354.82,-32.7 347.86,-30.13"/>
<polygon fill="#63b8ff" stroke="#63b8ff" points="459.77,-115.1 469.28,-119.76 464.75,-110.18 459.77,-115.1"/>
</a>
</g>
</g>
<!-- Node5&#45;&gt;Node3 -->
<g id="edge5_Node000005_Node000003" class="edge">
<title>Node5&#45;&gt;Node3</title>
<g id="a_edge5_Node000005_Node000003"><a xlink:title=" ">
<path fill="none" stroke="#63b8ff" d="M206.73,-128.27C188.13,-132.46 168.4,-136.9 150.31,-140.97"/>
<polygon fill="#63b8ff" stroke="#63b8ff" points="207.64,-131.66 216.62,-126.05 206.1,-124.83 207.64,-131.66"/>
</a>
</g>
</g>
<!-- Node7 -->
<g id="Node000007" class="node">
<title>Node7</title>
<g id="a_Node000007"><a xlink:href="classrenm__ps6_1_1RenmWindow.html#a72c43d0afdb1baf3a9dea39dbea8b522" target="_top" xlink:title=" ">
<polygon fill="white" stroke="#666666" points="163,-78 2,-78 2,-48 163,-48 163,-78"/>
<text text-anchor="start" x="10" y="-66" font-family="Helvetica,sans-Serif" font-size="10.00">renm_ps6.RenmWindow.clear</text>
<text text-anchor="middle" x="82.5" y="-55" font-family="Helvetica,sans-Serif" font-size="10.00">_click</text>
</a>
</g>
</g>
<!-- Node6&#45;&gt;Node7 -->
<g id="edge7_Node000006_Node000007" class="edge">
<title>Node6&#45;&gt;Node7</title>
<g id="a_edge7_Node000006_Node000007"><a xlink:title=" ">
<path fill="none" stroke="#63b8ff" d="M192.59,-63C182.81,-63 172.91,-63 163.27,-63"/>
<polygon fill="#63b8ff" stroke="#63b8ff" points="192.73,-66.5 202.73,-63 192.73,-59.5 192.73,-66.5"/>
</a>
</g>
</g>
</g>
</svg>
