<?xml version="1.0" encoding="UTF-8" standalone="no"?>
<!DOCTYPE svg PUBLIC "-//W3C//DTD SVG 1.1//EN"
 "http://www.w3.org/Graphics/SVG/1.1/DTD/svg11.dtd">
<!-- Generated by graphviz version 2.43.0 (0)
 -->
<!-- Title: renm_ps6.RenmWindow.undo_click Pages: 1 -->
<svg width="378pt" height="86pt"
 viewBox="0.00 0.00 378.00 86.00" xmlns="http://www.w3.org/2000/svg" xmlns:xlink="http://www.w3.org/1999/xlink">
<g id="graph0" class="graph" transform="scale(1 1) rotate(0) translate(4 82)">
<title>renm_ps6.RenmWindow.undo_click</title>
<!-- Node1 -->
<g id="Node000001" class="node">
<title>Node1</title>
<g id="a_Node000001"><a xlink:title=" ">
<polygon fill="#999999" stroke="#666666" points="161,-54 0,-54 0,-24 161,-24 161,-54"/>
<text text-anchor="start" x="8" y="-42" font-family="Helvetica,sans-Serif" font-size="10.00">renm_ps6.RenmWindow.undo</text>
<text text-anchor="middle" x="80.5" y="-31" font-family="Helvetica,sans-Serif" font-size="10.00">_click</text>
</a>
</g>
</g>
<!-- Node2 -->
<g id="Node000002" class="node">
<title>Node2</title>
<g id="a_Node000002"><a xlink:href="classrenm__ps6_1_1RenmWindow.html#a0d6b6549e9c6505a90382d181213c900" target="_top" xlink:title=" ">
<polygon fill="white" stroke="#666666" points="370,-78 197,-78 197,-48 370,-48 370,-78"/>
<text text-anchor="start" x="205" y="-66" font-family="Helvetica,sans-Serif" font-size="10.00">renm_ps6.RenmWindow.append</text>
<text text-anchor="middle" x="283.5" y="-55" font-family="Helvetica,sans-Serif" font-size="10.00">_message</text>
</a>
</g>
</g>
<!-- Node1&#45;&gt;Node2 -->
<g id="edge1_Node000001_Node000002" class="edge">
<title>Node1&#45;&gt;Node2</title>
<g id="a_edge1_Node000001_Node000002"><a xlink:title=" ">
<path fill="none" stroke="#63b8ff" d="M161.23,-48.52C169.66,-49.53 178.29,-50.56 186.88,-51.58"/>
<polygon fill="#63b8ff" stroke="#63b8ff" points="186.57,-55.07 196.92,-52.78 187.4,-48.12 186.57,-55.07"/>
</a>
</g>
</g>
<!-- Node3 -->
<g id="Node000003" class="node">
<title>Node3</title>
<g id="a_Node000003"><a xlink:href="classrenm__ps6_1_1RenmWindow.html#a8d883849ff2473e836e2b6f88e587b5e" target="_top" xlink:title=" ">
<polygon fill="white" stroke="#666666" points="364,-30 203,-30 203,0 364,0 364,-30"/>
<text text-anchor="start" x="211" y="-18" font-family="Helvetica,sans-Serif" font-size="10.00">renm_ps6.RenmWindow.clear</text>
<text text-anchor="middle" x="283.5" y="-7" font-family="Helvetica,sans-Serif" font-size="10.00">_message</text>
</a>
</g>
</g>
<!-- Node1&#45;&gt;Node3 -->
<g id="edge2_Node000001_Node000003" class="edge">
<title>Node1&#45;&gt;Node3</title>
<g id="a_edge2_Node000001_Node000003"><a xlink:title=" ">
<path fill="none" stroke="#63b8ff" d="M161.23,-29.48C171.61,-28.24 182.3,-26.96 192.83,-25.71"/>
<polygon fill="#63b8ff" stroke="#63b8ff" points="193.35,-29.17 202.87,-24.51 192.52,-22.22 193.35,-29.17"/>
</a>
</g>
</g>
</g>
</svg>
