<?xml version="1.0" encoding="UTF-8" standalone="no"?>
<!DOCTYPE svg PUBLIC "-//W3C//DTD SVG 1.1//EN"
 "http://www.w3.org/Graphics/SVG/1.1/DTD/svg11.dtd">
<!-- Generated by graphviz version 2.43.0 (0)
 -->
<!-- Title: renm_ps6.RenmWindow.help_click Pages: 1 -->
<svg width="375pt" height="86pt"
 viewBox="0.00 0.00 375.00 86.00" xmlns="http://www.w3.org/2000/svg" xmlns:xlink="http://www.w3.org/1999/xlink">
<g id="graph0" class="graph" transform="scale(1 1) rotate(0) translate(4 82)">
<title>renm_ps6.RenmWindow.help_click</title>
<!-- Node1 -->
<g id="Node000001" class="node">
<title>Node1</title>
<g id="a_Node000001"><a xlink:title=" ">
<polygon fill="#999999" stroke="#666666" points="158,-54 0,-54 0,-24 158,-24 158,-54"/>
<text text-anchor="start" x="8" y="-42" font-family="Helvetica,sans-Serif" font-size="10.00">renm_ps6.RenmWindow.help</text>
<text text-anchor="middle" x="79" y="-31" font-family="Helvetica,sans-Serif" font-size="10.00">_click</text>
</a>
</g>
</g>
<!-- Node2 -->
<g id="Node000002" class="node">
<title>Node2</title>
<g id="a_Node000002"><a xlink:href="classrenm__ps6_1_1RenmWindow.html#a0d6b6549e9c6505a90382d181213c900" target="_top" xlink:title=" ">
<polygon fill="white" stroke="#666666" points="367,-78 194,-78 194,-48 367,-48 367,-78"/>
<text text-anchor="start" x="202" y="-66" font-family="Helvetica,sans-Serif" font-size="10.00">renm_ps6.RenmWindow.append</text>
<text text-anchor="middle" x="280.5" y="-55" font-family="Helvetica,sans-Serif" font-size="10.00">_message</text>
</a>
</g>
</g>
<!-- Node1&#45;&gt;Node2 -->
<g id="edge1_Node000001_Node000002" class="edge">
<title>Node1&#45;&gt;Node2</title>
<g id="a_edge1_Node000001_Node000002"><a xlink:title=" ">
<path fill="none" stroke="#63b8ff" d="M158.28,-48.42C166.67,-49.43 175.28,-50.46 183.85,-51.49"/>
<polygon fill="#63b8ff" stroke="#63b8ff" points="183.52,-54.98 193.87,-52.7 184.36,-48.03 183.52,-54.98"/>
</a>
</g>
</g>
<!-- Node3 -->
<g id="Node000003" class="node">
<title>Node3</title>
<g id="a_Node000003"><a xlink:href="classrenm__ps6_1_1RenmWindow.html#a8d883849ff2473e836e2b6f88e587b5e" target="_top" xlink:title=" ">
<polygon fill="white" stroke="#666666" points="361,-30 200,-30 200,0 361,0 361,-30"/>
<text text-anchor="start" x="208" y="-18" font-family="Helvetica,sans-Serif" font-size="10.00">renm_ps6.RenmWindow.clear</text>
<text text-anchor="middle" x="280.5" y="-7" font-family="Helvetica,sans-Serif" font-size="10.00">_message</text>
</a>
</g>
</g>
<!-- Node1&#45;&gt;Node3 -->
<g id="edge2_Node000001_Node000003" class="edge">
<title>Node1&#45;&gt;Node3</title>
<g id="a_edge2_Node000001_Node000003"><a xlink:title=" ">
<path fill="none" stroke="#63b8ff" d="M158.28,-29.58C168.62,-28.34 179.28,-27.06 189.79,-25.79"/>
<polygon fill="#63b8ff" stroke="#63b8ff" points="190.3,-29.26 199.81,-24.59 189.46,-22.31 190.3,-29.26"/>
</a>
</g>
</g>
</g>
</svg>
