<?xml version="1.0" encoding="UTF-8" standalone="no"?>
<!DOCTYPE svg PUBLIC "-//W3C//DTD SVG 1.1//EN"
 "http://www.w3.org/Graphics/SVG/1.1/DTD/svg11.dtd">
<!-- Generated by graphviz version 2.43.0 (0)
 -->
<!-- Title: renm_ps6.RenmWindow.move_click Pages: 1 -->
<svg width="593pt" height="147pt"
 viewBox="0.00 0.00 593.00 146.64" xmlns="http://www.w3.org/2000/svg" xmlns:xlink="http://www.w3.org/1999/xlink">
<g id="graph0" class="graph" transform="scale(1 1) rotate(0) translate(4 142.64)">
<title>renm_ps6.RenmWindow.move_click</title>
<!-- Node1 -->
<g id="Node000001" class="node">
<title>Node1</title>
<g id="a_Node000001"><a xlink:title=" ">
<polygon fill="#999999" stroke="#666666" points="165,-75 0,-75 0,-45 165,-45 165,-75"/>
<text text-anchor="start" x="8" y="-63" font-family="Helvetica,sans-Serif" font-size="10.00">renm_ps6.RenmWindow.move</text>
<text text-anchor="middle" x="82.5" y="-52" font-family="Helvetica,sans-Serif" font-size="10.00">_click</text>
</a>
</g>
</g>
<!-- Node2 -->
<g id="Node000002" class="node">
<title>Node2</title>
<g id="a_Node000002"><a xlink:href="classrenm__ps6_1_1RenmWindow.html#a0d6b6549e9c6505a90382d181213c900" target="_top" xlink:title=" ">
<polygon fill="white" stroke="#666666" points="585,-99 412,-99 412,-69 585,-69 585,-99"/>
<text text-anchor="start" x="420" y="-87" font-family="Helvetica,sans-Serif" font-size="10.00">renm_ps6.RenmWindow.append</text>
<text text-anchor="middle" x="498.5" y="-76" font-family="Helvetica,sans-Serif" font-size="10.00">_message</text>
</a>
</g>
</g>
<!-- Node1&#45;&gt;Node2 -->
<g id="edge1_Node000001_Node000002" class="edge">
<title>Node1&#45;&gt;Node2</title>
<g id="a_edge1_Node000001_Node000002"><a xlink:title=" ">
<path fill="none" stroke="#63b8ff" d="M102.92,-75.09C125.18,-91.34 163.43,-116.17 201,-126 276.25,-145.69 299.3,-138.88 376,-126 402.77,-121.5 431.53,-111.8 454.34,-102.85"/>
<polygon fill="#63b8ff" stroke="#63b8ff" points="455.76,-106.05 463.73,-99.08 453.15,-99.56 455.76,-106.05"/>
</a>
</g>
</g>
<!-- Node3 -->
<g id="Node000003" class="node">
<title>Node3</title>
<g id="a_Node000003"><a xlink:href="classrenm__ps6_1_1RenmWindow.html#a8d883849ff2473e836e2b6f88e587b5e" target="_top" xlink:title=" ">
<polygon fill="white" stroke="#666666" points="579,-30 418,-30 418,0 579,0 579,-30"/>
<text text-anchor="start" x="426" y="-18" font-family="Helvetica,sans-Serif" font-size="10.00">renm_ps6.RenmWindow.clear</text>
<text text-anchor="middle" x="498.5" y="-7" font-family="Helvetica,sans-Serif" font-size="10.00">_message</text>
</a>
</g>
</g>
<!-- Node1&#45;&gt;Node3 -->
<g id="edge2_Node000001_Node000003" class="edge">
<title>Node1&#45;&gt;Node3</title>
<g id="a_edge2_Node000001_Node000003"><a xlink:title=" ">
<path fill="none" stroke="#63b8ff" d="M111.51,-44.93C134.73,-33.35 169,-18.28 201,-12 269.4,1.43 348.4,-0.18 407.65,-4.69"/>
<polygon fill="#63b8ff" stroke="#63b8ff" points="407.48,-8.19 417.73,-5.5 408.04,-1.21 407.48,-8.19"/>
</a>
</g>
</g>
<!-- Node4 -->
<g id="Node000004" class="node">
<title>Node4</title>
<g id="a_Node000004"><a xlink:href="classrenm__ps6_1_1RenmWindow.html#a020dcc3f9ef3962426f1b2d957ffa630" target="_top" xlink:title=" ">
<polygon fill="white" stroke="#666666" points="376,-99 201,-99 201,-69 376,-69 376,-99"/>
<text text-anchor="start" x="209" y="-87" font-family="Helvetica,sans-Serif" font-size="10.00">renm_ps6.RenmWindow.rename</text>
<text text-anchor="middle" x="288.5" y="-76" font-family="Helvetica,sans-Serif" font-size="10.00">_in_directory</text>
</a>
</g>
</g>
<!-- Node1&#45;&gt;Node4 -->
<g id="edge3_Node000001_Node000004" class="edge">
<title>Node1&#45;&gt;Node4</title>
<g id="a_edge3_Node000001_Node000004"><a xlink:title=" ">
<path fill="none" stroke="#63b8ff" d="M165.01,-69.59C173.46,-70.58 182.11,-71.6 190.71,-72.61"/>
<polygon fill="#63b8ff" stroke="#63b8ff" points="190.43,-76.1 200.77,-73.8 191.25,-69.15 190.43,-76.1"/>
</a>
</g>
</g>
<!-- Node5 -->
<g id="Node000005" class="node">
<title>Node5</title>
<g id="a_Node000005"><a xlink:href="classrenm__ps6_1_1RenmWindow.html#afb8ebe486575978446d2cfca80481270" target="_top" xlink:title=" ">
<polygon fill="white" stroke="#666666" points="370,-51 207,-51 207,-21 370,-21 370,-51"/>
<text text-anchor="start" x="215" y="-39" font-family="Helvetica,sans-Serif" font-size="10.00">renm_ps6.RenmWindow.show</text>
<text text-anchor="middle" x="288.5" y="-28" font-family="Helvetica,sans-Serif" font-size="10.00">_error_lines</text>
</a>
</g>
</g>
<!-- Node1&#45;&gt;Node5 -->
<g id="edge6_Node000001_Node000005" class="edge">
<title>Node1&#45;&gt;Node5</title>
<g id="a_edge6_Node000001_Node000005"><a xlink:title=" ">
<path fill="none" stroke="#63b8ff" d="M165.01,-50.41C175.43,-49.18 186.16,-47.92 196.73,-46.68"/>
<polygon fill="#63b8ff" stroke="#63b8ff" points="197.27,-50.14 206.79,-45.5 196.45,-43.19 197.27,-50.14"/>
</a>
</g>
</g>
<!-- Node4&#45;&gt;Node2 -->
<g id="edge4_Node000004_Node000002" class="edge">
<title>Node4&#45;&gt;Node2</title>
<g id="a_edge4_Node000004_Node000002"><a xlink:title=" ">
<path fill="none" stroke="#63b8ff" d="M376.2,-84C384.7,-84 393.35,-84 401.92,-84"/>
<polygon fill="#63b8ff" stroke="#63b8ff" points="401.94,-87.5 411.94,-84 401.94,-80.5 401.94,-87.5"/>
</a>
</g>
</g>
<!-- Node4&#45;&gt;Node4 -->
<g id="edge5_Node000004_Node000004" class="edge">
<title>Node4&#45;&gt;Node4</title>
<g id="a_edge5_Node000004_Node000004"><a xlink:title=" ">
<path fill="none" stroke="#63b8ff" d="M252.29,-99.28C244.24,-108.41 256.31,-117 288.5,-117 307.61,-117 319.63,-113.97 324.56,-109.6"/>
<polygon fill="#63b8ff" stroke="#63b8ff" points="328.06,-109.33 324.71,-99.28 321.06,-109.22 328.06,-109.33"/>
</a>
</g>
</g>
<!-- Node5&#45;&gt;Node2 -->
<g id="edge7_Node000005_Node000002" class="edge">
<title>Node5&#45;&gt;Node2</title>
<g id="a_edge7_Node000005_Node000002"><a xlink:title=" ">
<path fill="none" stroke="#63b8ff" d="M354.74,-51.06C376.23,-56.01 400.3,-61.57 422.46,-66.68"/>
<polygon fill="#63b8ff" stroke="#63b8ff" points="421.96,-70.16 432.49,-69 423.53,-63.34 421.96,-70.16"/>
</a>
</g>
</g>
<!-- Node5&#45;&gt;Node3 -->
<g id="edge8_Node000005_Node000003" class="edge">
<title>Node5&#45;&gt;Node3</title>
<g id="a_edge8_Node000005_Node000003"><a xlink:title=" ">
<path fill="none" stroke="#63b8ff" d="M370.22,-27.85C382.56,-26.6 395.37,-25.31 407.89,-24.05"/>
<polygon fill="#63b8ff" stroke="#63b8ff" points="408.26,-27.53 417.86,-23.04 407.55,-20.56 408.26,-27.53"/>
</a>
</g>
</g>
</g>
</svg>
