<?xml version="1.0" encoding="UTF-8" standalone="no"?>
<!DOCTYPE svg PUBLIC "-//W3C//DTD SVG 1.1//EN"
 "http://www.w3.org/Graphics/SVG/1.1/DTD/svg11.dtd">
<!-- Generated by graphviz version 2.43.0 (0)
 -->
<!-- Title: renm_ps6.RenmWindow.select_click Pages: 1 -->
<svg width="384pt" height="86pt"
 viewBox="0.00 0.00 384.00 86.00" xmlns="http://www.w3.org/2000/svg" xmlns:xlink="http://www.w3.org/1999/xlink">
<g id="graph0" class="graph" transform="scale(1 1) rotate(0) translate(4 82)">
<title>renm_ps6.RenmWindow.select_click</title>
<!-- Node1 -->
<g id="Node000001" class="node">
<title>Node1</title>
<g id="a_Node000001"><a xlink:title=" ">
<polygon fill="#999999" stroke="#666666" points="167,-54 0,-54 0,-24 167,-24 167,-54"/>
<text text-anchor="start" x="8" y="-42" font-family="Helvetica,sans-Serif" font-size="10.00">renm_ps6.RenmWindow.select</text>
<text text-anchor="middle" x="83.5" y="-31" font-family="Helvetica,sans-Serif" font-size="10.00">_click</text>
</a>
</g>
</g>
<!-- Node2 -->
<g id="Node000002" class="node">
<title>Node2</title>
<g id="a_Node000002"><a xlink:href="classrenm__ps6_1_1RenmWindow.html#a0d6b6549e9c6505a90382d181213c900" target="_top" xlink:title=" ">
<polygon fill="white" stroke="#666666" points="376,-78 203,-78 203,-48 376,-48 376,-78"/>
<text text-anchor="start" x="211" y="-66" font-family="Helvetica,sans-Serif" font-size="10.00">renm_ps6.RenmWindow.append</text>
<text text-anchor="middle" x="289.5" y="-55" font-family="Helvetica,sans-Serif" font-size="10.00">_message</text>
</a>
</g>
</g>
<!-- Node1&#45;&gt;Node2 -->
<g id="edge1_Node000001_Node000002" class="edge">
<title>Node1&#45;&gt;Node2</title>
<g id="a_edge1_Node000001_Node000002"><a xlink:title=" ">
<path fill="none" stroke="#63b8ff" d="M167.18,-48.73C175.6,-49.72 184.19,-50.73 192.73,-51.73"/>
<polygon fill="#63b8ff" stroke="#63b8ff" points="192.37,-55.21 202.71,-52.91 193.19,-48.26 192.37,-55.21"/>
</a>
</g>
</g>
<!-- Node3 -->
<g id="Node000003" class="node">
<title>Node3</title>
<g id="a_Node000003"><a xlink:href="classrenm__ps6_1_1RenmWindow.html#a8d883849ff2473e836e2b6f88e587b5e" target="_top" xlink:title=" ">
<polygon fill="white" stroke="#666666" points="370,-30 209,-30 209,0 370,0 370,-30"/>
<text text-anchor="start" x="217" y="-18" font-family="Helvetica,sans-Serif" font-size="10.00">renm_ps6.RenmWindow.clear</text>
<text text-anchor="middle" x="289.5" y="-7" font-family="Helvetica,sans-Serif" font-size="10.00">_message</text>
</a>
</g>
</g>
<!-- Node1&#45;&gt;Node3 -->
<g id="edge2_Node000001_Node000003" class="edge">
<title>Node1&#45;&gt;Node3</title>
<g id="a_edge2_Node000001_Node000003"><a xlink:title=" ">
<path fill="none" stroke="#63b8ff" d="M167.18,-29.27C177.56,-28.05 188.21,-26.8 198.7,-25.57"/>
<polygon fill="#63b8ff" stroke="#63b8ff" points="199.15,-29.04 208.68,-24.39 198.34,-22.08 199.15,-29.04"/>
</a>
</g>
</g>
</g>
</svg>
