<?xml version="1.0" encoding="UTF-8" standalone="no"?>
<!DOCTYPE svg PUBLIC "-//W3C//DTD SVG 1.1//EN"
 "http://www.w3.org/Graphics/SVG/1.1/DTD/svg11.dtd">
<!-- Generated by graphviz version 2.43.0 (0)
 -->
<!-- Title: renm_ps6.RenmWindow.append_message Pages: 1 -->
<svg width="593pt" height="334pt"
 viewBox="0.00 0.00 593.00 334.00" xmlns="http://www.w3.org/2000/svg" xmlns:xlink="http://www.w3.org/1999/xlink">
<g id="graph0" class="graph" transform="scale(1 1) rotate(0) translate(4 330)">
<title>renm_ps6.RenmWindow.append_message</title>
<!-- Node1 -->
<g id="Node000001" class="node">
<title>Node1</title>
<g id="a_Node000001"><a xlink:title=" ">
<polygon fill="#999999" stroke="#666666" points="585,-174 412,-174 412,-144 585,-144 585,-174"/>
<text text-anchor="start" x="420" y="-162" font-family="Helvetica,sans-Serif" font-size="10.00">renm_ps6.RenmWindow.append</text>
<text text-anchor="middle" x="498.5" y="-151" font-family="Helvetica,sans-Serif" font-size="10.00">_message</text>
</a>
</g>
</g>
<!-- Node2 -->
<g id="Node000002" class="node">
<title>Node2</title>
<g id="a_Node000002"><a xlink:href="classrenm__ps6_1_1RenmWindow.html#aef3c7c31a7a3d6cff1a91e08d69ea751" target="_top" xlink:title=" ">
<polygon fill="white" stroke="#666666" points="367.5,-326 209.5,-326 209.5,-296 367.5,-296 367.5,-326"/>
<text text-anchor="start" x="217.5" y="-314" font-family="Helvetica,sans-Serif" font-size="10.00">renm_ps6.RenmWindow.help</text>
<text text-anchor="middle" x="288.5" y="-303" font-family="Helvetica,sans-Serif" font-size="10.00">_click</text>
</a>
</g>
</g>
<!-- Node1&#45;&gt;Node2 -->
<g id="edge1_Node000001_Node000002" class="edge">
<title>Node1&#45;&gt;Node2</title>
<g id="a_edge1_Node000001_Node000002"><a xlink:title=" ">
<path fill="none" stroke="#63b8ff" d="M480.1,-182.35C458.5,-209.81 419.21,-255.06 376,-282 367.13,-287.53 357.08,-292.14 347.06,-295.93"/>
<polygon fill="#63b8ff" stroke="#63b8ff" points="483.13,-184.16 486.47,-174.11 477.59,-179.88 483.13,-184.16"/>
</a>
</g>
</g>
<!-- Node3 -->
<g id="Node000003" class="node">
<title>Node3</title>
<g id="a_Node000003"><a xlink:href="classrenm__ps6_1_1RenmWindow.html#aa255eadec90489b8d53b4886e6f4e770" target="_top" xlink:title=" ">
<polygon fill="white" stroke="#666666" points="165,-222 0,-222 0,-192 165,-192 165,-222"/>
<text text-anchor="start" x="8" y="-210" font-family="Helvetica,sans-Serif" font-size="10.00">renm_ps6.RenmWindow.move</text>
<text text-anchor="middle" x="82.5" y="-199" font-family="Helvetica,sans-Serif" font-size="10.00">_click</text>
</a>
</g>
</g>
<!-- Node1&#45;&gt;Node3 -->
<g id="edge2_Node000001_Node000003" class="edge">
<title>Node1&#45;&gt;Node3</title>
<g id="a_edge2_Node000001_Node000003"><a xlink:title=" ">
<path fill="none" stroke="#63b8ff" d="M476.31,-181.5C453.85,-203.57 416.14,-235.75 376,-249 302.14,-273.38 277.63,-262.28 201,-249 171.33,-243.86 139.24,-231.92 116.1,-222.08"/>
<polygon fill="#63b8ff" stroke="#63b8ff" points="479.03,-183.73 483.6,-174.17 474.07,-178.8 479.03,-183.73"/>
</a>
</g>
</g>
<!-- Node4 -->
<g id="Node000004" class="node">
<title>Node4</title>
<g id="a_Node000004"><a xlink:href="classrenm__ps6_1_1RenmWindow.html#a020dcc3f9ef3962426f1b2d957ffa630" target="_top" xlink:title=" ">
<polygon fill="white" stroke="#666666" points="376,-222 201,-222 201,-192 376,-192 376,-222"/>
<text text-anchor="start" x="209" y="-210" font-family="Helvetica,sans-Serif" font-size="10.00">renm_ps6.RenmWindow.rename</text>
<text text-anchor="middle" x="288.5" y="-199" font-family="Helvetica,sans-Serif" font-size="10.00">_in_directory</text>
</a>
</g>
</g>
<!-- Node1&#45;&gt;Node4 -->
<g id="edge3_Node000001_Node000004" class="edge">
<title>Node1&#45;&gt;Node4</title>
<g id="a_edge3_Node000001_Node000004"><a xlink:title=" ">
<path fill="none" stroke="#63b8ff" d="M422.22,-176.37C400.05,-181.49 375.98,-187.04 354.51,-192"/>
<polygon fill="#63b8ff" stroke="#63b8ff" points="423.3,-179.71 432.26,-174.06 421.73,-172.89 423.3,-179.71"/>
</a>
</g>
</g>
<!-- Node5 -->
<g id="Node000005" class="node">
<title>Node5</title>
<g id="a_Node000005"><a xlink:href="classrenm__ps6_1_1RenmWindow.html#a8549dab0e0db1b2f94ec8968078fbcf5" target="_top" xlink:title=" ">
<polygon fill="white" stroke="#666666" points="372,-174 205,-174 205,-144 372,-144 372,-174"/>
<text text-anchor="start" x="213" y="-162" font-family="Helvetica,sans-Serif" font-size="10.00">renm_ps6.RenmWindow.select</text>
<text text-anchor="middle" x="288.5" y="-151" font-family="Helvetica,sans-Serif" font-size="10.00">_click</text>
</a>
</g>
</g>
<!-- Node1&#45;&gt;Node5 -->
<g id="edge6_Node000001_Node000005" class="edge">
<title>Node1&#45;&gt;Node5</title>
<g id="a_edge6_Node000001_Node000005"><a xlink:title=" ">
<path fill="none" stroke="#63b8ff" d="M401.79,-159C391.95,-159 382.01,-159 372.32,-159"/>
<polygon fill="#63b8ff" stroke="#63b8ff" points="402,-162.5 412,-159 402,-155.5 402,-162.5"/>
</a>
</g>
</g>
<!-- Node6 -->
<g id="Node000006" class="node">
<title>Node6</title>
<g id="a_Node000006"><a xlink:href="classrenm__ps6_1_1RenmWindow.html#afb8ebe486575978446d2cfca80481270" target="_top" xlink:title=" ">
<polygon fill="white" stroke="#666666" points="370,-126 207,-126 207,-96 370,-96 370,-126"/>
<text text-anchor="start" x="215" y="-114" font-family="Helvetica,sans-Serif" font-size="10.00">renm_ps6.RenmWindow.show</text>
<text text-anchor="middle" x="288.5" y="-103" font-family="Helvetica,sans-Serif" font-size="10.00">_error_lines</text>
</a>
</g>
</g>
<!-- Node1&#45;&gt;Node6 -->
<g id="edge7_Node000001_Node000006" class="edge">
<title>Node1&#45;&gt;Node6</title>
<g id="a_edge7_Node000001_Node000006"><a xlink:title=" ">
<path fill="none" stroke="#63b8ff" d="M422.22,-141.63C400.05,-136.51 375.98,-130.96 354.51,-126"/>
<polygon fill="#63b8ff" stroke="#63b8ff" points="421.73,-145.11 432.26,-143.94 423.3,-138.29 421.73,-145.11"/>
</a>
</g>
</g>
<!-- Node7 -->
<g id="Node000007" class="node">
<title>Node7</title>
<g id="a_Node000007"><a xlink:href="classrenm__ps6_1_1RenmWindow.html#a9fd7d55ea8e9ca01a1ca11d6cb57888c" target="_top" xlink:title=" ">
<polygon fill="white" stroke="#666666" points="370,-78 207,-78 207,-48 370,-48 370,-78"/>
<text text-anchor="start" x="215" y="-66" font-family="Helvetica,sans-Serif" font-size="10.00">renm_ps6.RenmWindow.show</text>
<text text-anchor="middle" x="288.5" y="-55" font-family="Helvetica,sans-Serif" font-size="10.00">_help_message</text>
</a>
</g>
</g>
<!-- Node1&#45;&gt;Node7 -->
<g id="edge9_Node000001_Node000007" class="edge">
<title>Node1&#45;&gt;Node7</title>
<g id="a_edge9_Node000001_Node000007"><a xlink:title=" ">
<path fill="none" stroke="#63b8ff" d="M467.44,-138.13C443.54,-122.31 408.8,-100.98 376,-87 368.26,-83.7 359.93,-80.73 351.62,-78.08"/>
<polygon fill="#63b8ff" stroke="#63b8ff" points="465.78,-141.23 476.04,-143.89 469.68,-135.42 465.78,-141.23"/>
</a>
</g>
</g>
<!-- Node9 -->
<g id="Node000009" class="node">
<title>Node9</title>
<g id="a_Node000009"><a xlink:href="classrenm__ps6_1_1RenmWindow.html#a2a8c512cec2d73e55ba1f8ec646b14f0" target="_top" xlink:title=" ">
<polygon fill="white" stroke="#666666" points="369,-30 208,-30 208,0 369,0 369,-30"/>
<text text-anchor="start" x="216" y="-18" font-family="Helvetica,sans-Serif" font-size="10.00">renm_ps6.RenmWindow.undo</text>
<text text-anchor="middle" x="288.5" y="-7" font-family="Helvetica,sans-Serif" font-size="10.00">_click</text>
</a>
</g>
</g>
<!-- Node1&#45;&gt;Node9 -->
<g id="edge11_Node000001_Node000009" class="edge">
<title>Node1&#45;&gt;Node9</title>
<g id="a_edge11_Node000001_Node000009"><a xlink:title=" ">
<path fill="none" stroke="#63b8ff" d="M479.86,-135.42C458.3,-108.23 419.29,-64.07 376,-39 370.07,-35.56 363.62,-32.6 357,-30.05"/>
<polygon fill="#63b8ff" stroke="#63b8ff" points="477.33,-137.86 486.23,-143.6 482.85,-133.56 477.33,-137.86"/>
</a>
</g>
</g>
<!-- Node4&#45;&gt;Node3 -->
<g id="edge4_Node000004_Node000003" class="edge">
<title>Node4&#45;&gt;Node3</title>
<g id="a_edge4_Node000004_Node000003"><a xlink:title=" ">
<path fill="none" stroke="#63b8ff" d="M190.95,-207C182.36,-207 173.72,-207 165.28,-207"/>
<polygon fill="#63b8ff" stroke="#63b8ff" points="190.99,-210.5 200.99,-207 190.99,-203.5 190.99,-210.5"/>
</a>
</g>
</g>
<!-- Node4&#45;&gt;Node4 -->
<g id="edge5_Node000004_Node000004" class="edge">
<title>Node4&#45;&gt;Node4</title>
<g id="a_edge5_Node000004_Node000004"><a xlink:title=" ">
<path fill="none" stroke="#63b8ff" d="M324.56,-232.6C319.63,-236.97 307.61,-240 288.5,-240 256.31,-240 244.24,-231.41 252.29,-222.28"/>
<polygon fill="#63b8ff" stroke="#63b8ff" points="328.06,-232.33 324.71,-222.28 321.06,-232.22 328.06,-232.33"/>
</a>
</g>
</g>
<!-- Node6&#45;&gt;Node3 -->
<g id="edge8_Node000006_Node000003" class="edge">
<title>Node6&#45;&gt;Node3</title>
<g id="a_edge8_Node000006_Node000003"><a xlink:title=" ">
<path fill="none" stroke="#63b8ff" d="M215.36,-129.35C210.44,-131.11 205.62,-132.99 201,-135 165.02,-150.65 126.92,-175.8 104.18,-191.85"/>
<polygon fill="#63b8ff" stroke="#63b8ff" points="216.53,-132.65 224.88,-126.13 214.28,-126.02 216.53,-132.65"/>
</a>
</g>
</g>
<!-- Node8 -->
<g id="Node000008" class="node">
<title>Node8</title>
<g id="a_Node000008"><a xlink:href="classrenm__ps6_1_1RenmWindow.html#a72c43d0afdb1baf3a9dea39dbea8b522" target="_top" xlink:title=" ">
<polygon fill="white" stroke="#666666" points="163,-78 2,-78 2,-48 163,-48 163,-78"/>
<text text-anchor="start" x="10" y="-66" font-family="Helvetica,sans-Serif" font-size="10.00">renm_ps6.RenmWindow.clear</text>
<text text-anchor="middle" x="82.5" y="-55" font-family="Helvetica,sans-Serif" font-size="10.00">_click</text>
</a>
</g>
</g>
<!-- Node7&#45;&gt;Node8 -->
<g id="edge10_Node000007_Node000008" class="edge">
<title>Node7&#45;&gt;Node8</title>
<g id="a_edge10_Node000007_Node000008"><a xlink:title=" ">
<path fill="none" stroke="#63b8ff" d="M196.69,-63C185.53,-63 174.19,-63 163.21,-63"/>
<polygon fill="#63b8ff" stroke="#63b8ff" points="196.87,-66.5 206.87,-63 196.87,-59.5 196.87,-66.5"/>
</a>
</g>
</g>
</g>
</svg>
