<?xml version="1.0" encoding="UTF-8" standalone="no"?>
<!DOCTYPE svg PUBLIC "-//W3C//DTD SVG 1.1//EN"
 "http://www.w3.org/Graphics/SVG/1.1/DTD/svg11.dtd">
<!-- Generated by graphviz version 2.43.0 (0)
 -->
<!-- Title: renm_ps6.RenmWindow.show_help_message Pages: 1 -->
<svg width="380pt" height="86pt"
 viewBox="0.00 0.00 380.00 86.00" xmlns="http://www.w3.org/2000/svg" xmlns:xlink="http://www.w3.org/1999/xlink">
<g id="graph0" class="graph" transform="scale(1 1) rotate(0) translate(4 82)">
<title>renm_ps6.RenmWindow.show_help_message</title>
<!-- Node1 -->
<g id="Node000001" class="node">
<title>Node1</title>
<g id="a_Node000001"><a xlink:title=" ">
<polygon fill="#999999" stroke="#666666" points="163,-54 0,-54 0,-24 163,-24 163,-54"/>
<text text-anchor="start" x="8" y="-42" font-family="Helvetica,sans-Serif" font-size="10.00">renm_ps6.RenmWindow.show</text>
<text text-anchor="middle" x="81.5" y="-31" font-family="Helvetica,sans-Serif" font-size="10.00">_help_message</text>
</a>
</g>
</g>
<!-- Node2 -->
<g id="Node000002" class="node">
<title>Node2</title>
<g id="a_Node000002"><a xlink:href="classrenm__ps6_1_1RenmWindow.html#a0d6b6549e9c6505a90382d181213c900" target="_top" xlink:title=" ">
<polygon fill="white" stroke="#666666" points="372,-78 199,-78 199,-48 372,-48 372,-78"/>
<text text-anchor="start" x="207" y="-66" font-family="Helvetica,sans-Serif" font-size="10.00">renm_ps6.RenmWindow.append</text>
<text text-anchor="middle" x="285.5" y="-55" font-family="Helvetica,sans-Serif" font-size="10.00">_message</text>
</a>
</g>
</g>
<!-- Node1&#45;&gt;Node2 -->
<g id="edge1_Node000001_Node000002" class="edge">
<title>Node1&#45;&gt;Node2</title>
<g id="a_edge1_Node000001_Node000002"><a xlink:title=" ">
<path fill="none" stroke="#63b8ff" d="M163.21,-48.59C171.66,-49.59 180.31,-50.62 188.9,-51.64"/>
<polygon fill="#63b8ff" stroke="#63b8ff" points="188.61,-55.13 198.96,-52.84 189.44,-48.18 188.61,-55.13"/>
</a>
</g>
</g>
<!-- Node3 -->
<g id="Node000003" class="node">
<title>Node3</title>
<g id="a_Node000003"><a xlink:href="classrenm__ps6_1_1RenmWindow.html#a8d883849ff2473e836e2b6f88e587b5e" target="_top" xlink:title=" ">
<polygon fill="white" stroke="#666666" points="366,-30 205,-30 205,0 366,0 366,-30"/>
<text text-anchor="start" x="213" y="-18" font-family="Helvetica,sans-Serif" font-size="10.00">renm_ps6.RenmWindow.clear</text>
<text text-anchor="middle" x="285.5" y="-7" font-family="Helvetica,sans-Serif" font-size="10.00">_message</text>
</a>
</g>
</g>
<!-- Node1&#45;&gt;Node3 -->
<g id="edge2_Node000001_Node000003" class="edge">
<title>Node1&#45;&gt;Node3</title>
<g id="a_edge2_Node000001_Node000003"><a xlink:title=" ">
<path fill="none" stroke="#63b8ff" d="M163.21,-29.41C173.62,-28.17 184.33,-26.9 194.87,-25.65"/>
<polygon fill="#63b8ff" stroke="#63b8ff" points="195.39,-29.11 204.91,-24.46 194.57,-22.16 195.39,-29.11"/>
</a>
</g>
</g>
</g>
</svg>
