<?xml version="1.0" encoding="UTF-8" standalone="no"?>
<!DOCTYPE svg PUBLIC "-//W3C//DTD SVG 1.1//EN"
 "http://www.w3.org/Graphics/SVG/1.1/DTD/svg11.dtd">
<!-- Generated by graphviz version 2.43.0 (0)
 -->
<!-- Title: renm_ps6.resource_path Pages: 1 -->
<svg width="318pt" height="56pt"
 viewBox="0.00 0.00 318.00 56.00" xmlns="http://www.w3.org/2000/svg" xmlns:xlink="http://www.w3.org/1999/xlink">
<g id="graph0" class="graph" transform="scale(1 1) rotate(0) translate(4 52)">
<title>renm_ps6.resource_path</title>
<!-- Node1 -->
<g id="Node000001" class="node">
<title>Node1</title>
<g id="a_Node000001"><a xlink:title=" ">
<polygon fill="#999999" stroke="#666666" points="310,-24.5 173,-24.5 173,-5.5 310,-5.5 310,-24.5"/>
<text text-anchor="middle" x="241.5" y="-12.5" font-family="Helvetica,sans-Serif" font-size="10.00">renm_ps6.resource_path</text>
</a>
</g>
</g>
<!-- Node2 -->
<g id="Node000002" class="node">
<title>Node2</title>
<g id="a_Node000002"><a xlink:href="classrenm__ps6_1_1RenmWindow.html#a50a00d8d1967ea310b38a3076361708b" target="_top" xlink:title=" ">
<polygon fill="white" stroke="#666666" points="137,-30 0,-30 0,0 137,0 137,-30"/>
<text text-anchor="start" x="8" y="-18" font-family="Helvetica,sans-Serif" font-size="10.00">renm_ps6.RenmWindow.</text>
<text text-anchor="middle" x="68.5" y="-7" font-family="Helvetica,sans-Serif" font-size="10.00">__init__</text>
</a>
</g>
</g>
<!-- Node1&#45;&gt;Node2 -->
<g id="edge1_Node000001_Node000002" class="edge">
<title>Node1&#45;&gt;Node2</title>
<g id="a_edge1_Node000001_Node000002"><a xlink:title=" ">
<path fill="none" stroke="#63b8ff" d="M162.9,-15C154.31,-15 145.61,-15 137.15,-15"/>
<polygon fill="#63b8ff" stroke="#63b8ff" points="162.92,-18.5 172.92,-15 162.92,-11.5 162.92,-18.5"/>
</a>
</g>
</g>
<!-- Node2&#45;&gt;Node2 -->
<g id="edge2_Node000002_Node000002" class="edge">
<title>Node2&#45;&gt;Node2</title>
<g id="a_edge2_Node000002_Node000002"><a xlink:title=" ">
<path fill="none" stroke="#63b8ff" d="M98.61,-40.6C94.49,-44.97 84.46,-48 68.5,-48 41.62,-48 31.55,-39.41 38.27,-30.28"/>
<polygon fill="#63b8ff" stroke="#63b8ff" points="102.11,-40.32 98.73,-30.28 95.11,-40.23 102.11,-40.32"/>
</a>
</g>
</g>
</g>
</svg>
